<?xml version="1.0" encoding="utf-8"?>
<svg width="115" height="34" viewBox="0 0 115 34" fill="none" xmlns="http://www.w3.org/2000/svg" xmlns:bx="https://boxy-svg.com">
  <path fill-rule="evenodd" clip-rule="evenodd" d="M17 34C26.3888 34 34 26.3888 34 17C34 7.61116 26.3888 0 17 0C7.61114 0 0 7.61116 0 17C0 26.3888 7.61114 34 17 34ZM22.3034 7.91931C22.5616 7.00234 21.6717 6.46011 20.859 7.0391L9.51415 15.1211C8.63278 15.749 8.77142 17 9.7224 17H12.7098V16.9768H18.5321L13.788 18.6508L11.6966 26.0807C11.4385 26.9977 12.3282 27.5399 13.141 26.9609L24.4859 18.8789C25.3672 18.251 25.2285 17 24.2776 17H19.7473L22.3034 7.91931Z" style="fill: rgb(111, 5, 229);"/>
  <text style="fill: rgb(51, 51, 51); font-family: Poppins; font-size: 18.4436px; font-weight: 600; letter-spacing: 1px; text-transform: capitalize; white-space: pre;" transform="matrix(1.111885, 0, 0, 1.138606, 4.267653, -3.4861)" x="34.106" y="24.108">Tutorly</text>
  <defs>
    <style bx:fonts="Poppins">@import url(https://fonts.googleapis.com/css2?family=Poppins%3Aital%2Cwght%400%2C100%3B0%2C200%3B0%2C300%3B0%2C400%3B0%2C500%3B0%2C600%3B0%2C700%3B0%2C800%3B0%2C900%3B1%2C100%3B1%2C200%3B1%2C300%3B1%2C400%3B1%2C500%3B1%2C600%3B1%2C700%3B1%2C800%3B1%2C900&amp;display=swap);</style>
  </defs>
</svg>